P1
# CREATOR: GIMP PNM Filter Version 1.1
178 128
0000000000000000000000000000000000000000000000000000000000000000000000
0000000000000000000000000000000000000000000000000000000000000000000000
0000000000000000000000000000000000000000000000000000000000000000000000
0000000000000000000000000000000000000000000000000000000000000000000000
0000000000000000000000000000000000000000000000000000000000000000000000
0000000000000000000000000000000000000000000000000000000000000000000000
0000000000000000000000000000000000000000000000000000000000000000000000
0000000000000000000000000000000000000000000000000000000000000000000000
0000000000000000000000000000000000000000000000000000000000000000000000
0000000000000000000000000000000000000000000000000000000000000000000000
0000000000000000000000000000000000000000000000000000000000000000000000
0000000000000000000000011111111111111111111111111111001110011000000000
0000000000000000000000000000000000000000000000000000000000000000000000
0000000000000000000000000000000001100000000000000000000000000011111111
1111111111111111111001110011111000000000000000000000000000000000000000
0000000000000000000000000000000000000000000000000000000000000000000000
0111000000000000000000000000000111111111111111111111111100111001111111
0000000000000000000000000000000000000000000000000000000000000000000000
0000000000000000000000000000000000000001111000000000000000000000000000
1111111111111111111111100111001111111110000000000000000000000000000000
0000000000000000000000000000000000000000000000000000000000000000000000
0000000111110000000000000000000000000001111111111111111111110011100111
1111111100000000000000000000000000000000000000000000000000000000000000
0000000000000000000000000000000000000000000001111110000000000000000000
0000000011111111111111111110011100011111111111100000000000000000000000
0000000000000000000000000000000000000000000000000000000000000000000000
0000000000000111111000000000000000000000000000011111111000000000001111
1100001111111111000000000000000000000000000000000000000000000000000000
0000000000000000000000000000000000000000000000000001111110000000000000
0000000000000001111111000000000001111111111000111111111000000000000000
0000000000000000000000000000000000000000000000000000000000000000000000
0000000000000000000111111000000000000000000000000000011111100000000000
1111111111110001111111110000000000000000000000000000000000000000000000
0000000000000000000000000000000000000000000000000000000001111110000000
0000000000000000000001111110000000000111111111111000001111111100000000
0000000000000000000000000000000000000000000000000000000000000000000000
0000000000000000000000000111111000000000000000000000000000011111100000
0000111111111111000000011111111000000000000000000000000000000000000000
0000000000000000000000000000000000000000000000000000000000000001111110
0000000000000000000000000001111110000000011111111111100110000011111110
0000000000000000000000000000000000000000000000000000000000000000000000
0000000000000000000000000000000111111100000000000000000000000000011111
1000000011111111111100111000001111111100000000000000000000000000000000
0000000000000000000000000000000000000000000000000000000000000000000001
1111111000000000000000000000000001111110000001111111111110011110000001
1111110000000000000000000000000000000000000000000000000000000000000000
0000000000000000000000000000000000000111111111000000000000000000000000
0111111000001111111111110011111000000111111100000000000000000000000000
0000000000000000000000000000000000000000000000000000000000000000000000
0000001111111110000000000000000000000001111110000111111111111001111100
0000001111111000000000000000000000000000000000000000000000000000000000
0000000000000000000000000000000000000000000001111111110000000000000000
0000000111111000111111111111001111100000000011111110000000000000000000
0000000000000000000000000000000000000000000000000000000000000000000000
0000000000000011111111100000000000000000000001111110011111111111100111
1100000000001111111000000000000000000000000000000000000000000000000000
0000000000000000000000000000000000000000000000000000011111111100000000
0000000000000111110011111111111100111110000000000011111110000000000000
0000000000000000000000000000000000000000000000000000000000000000000000
0000000000000000000000111111111000000000000000000001111000111111111110
0111110000000000001111111000000000000000000000000000000000000000000000
0000000000000000000000000000000000000000000000000000000000000111111111
0000000000000000000111001011111111110011111000000000000011111110000000
0000000000000000000000000000000000000000000000000000000000000000000000
0000000000000000000000000000001111111110000000000000000001100110111111
1110011111000000000000001111111000000000000000000000000000000000000000
0000000000000000000000000000000000000000000000000000000000000000000001
1111111100000000000000000000111011111111001111100000000000000011111110
0000000000000000000000000000000000000000000000000000000000000000000000
0000000000000000000000000000000000000011111111100000000000000000011110
1111111001111100000000000000001111111000000000000000000000000000000000
0000000000000000000000000000000000000000000000000000000000000000000000
0000000111111111111111111111110011110011111100111110000000000000000011
1111000000000000000000000000000000000000000000000000000000000000000000
0000000000000000000000000000000000000000000000111111111111111111111001
1110011111100111110000000000000000011111110000000000000000000000000000
0000000000000000000000000000000000000000000000000000000000000000000000
0000000000000001111111111111111111001111001111110011111000000000000000
0001111111000000000000000000000000000000000000000000000000000000000000
0000000000000000000000000000000000000000000000000000111111111111111111
1001111001111110011111000000000000000000111111100000000000000000000000
0000000000000000000000000000000000000000000000000000000000000000000000
0000000000000000000111111111111111111100111100111111001111100000000000
0000000111111110000000000000000000000000000000000000000000000000000000
0000000000000000000000000000000000000000000000000000000011111111111111
1111100111100111111001111100000000000000000011111111000000000000000000
0000000000000000000000000000000000000000000000000000000000000000000000
0000000000000000000000011111111100000000000011110011111100111110000000
0000000000011111111100000000000000000000000000000000000000000000000000
0000000000000000000000000000000000000000000000000000000000001111111110
0000000000011110011111100111110000000000000000001111111110000000000000
0000000000000000000000000000000000000000000000000000000000000000000000
0000000000000000000000000001111111110000000000001111001111110011111000
0000000000000011111111111000000000000000000000000000000000000000000000
0000000000000000000000000000000000000000000000000000000000000000111111
1110000000000001111001111110011111000000000000000011111111111100000000
0000000000000000000000000000000000000000000000000000000000000000000000
0000000000000000000000000000000111111111000000000000111100111111001111
1000000000011111111111111111100000000000000000000000000000000000000000
0000000000000000000000000000000000000000000000000000000000000000000011
1111111000000000000111100111111001111100000000000011111111111111110000
0000000000000000000000000000000000000000000000000000000000000000000000
0000000000000000000000000000000000011111111100000000000011110011111100
1111100000000000000111111111111110000000000000000000000000000000000000
0000000000000000000000000000000000000000000000000000000000000000000000
0011111111100000000000011110011111100111110000000000000000111111111110
0000000000000000000000000000000000000000000000000000000000000000000000
0000000000000000000000000000000000000001111111110000000000001111001111
1100111110000000000000000001111111100000000000000000000000000000000000
0000000000000000000000000000000000000000000000000000000000000000000000
0000000111111110000000000001111001111110011111000000000000000000001111
1000000000000000000000000000000000000000000000000000000000000000000000
0000000000000000000000000000000000000000000001111111000000000000000000
1111110000000000000000000000000000000000000000000000000000000000000000
0000000000000000000000000000000000000000000000000000000000000000000000
0000000000000111111000000000000000000111111000000000000000000000000000
0000000000000000000000000000000000000000000000000000000000000000000000
0000000000000000000000000000000000000000000000000001111110000000000011
1111111111111111111111111111111111111110000000000000000000000000000000
0000000000000000000000000000000000000000000000000000000000000000000000
0000000000000000000111111000000000011111111111111111111111111111111111
1111110011000000000000000000000000000000000000000000000000000000000000
0000000000000000000000000000000000000000000000000000000001111110000000
0011111111111111111111111111111111111111111001111000000000000000000000
0000000000000000000000000000000000000000000000000000000000000000000000
0000000000000000000000000111111000000001111111111111111111111111111111
1111111111001111110000000000000000000000000000000000000000000000000000
0000000000000000000000000000000000000000000000000000000000000001111110
0000001111111111111111111111111111111111111111100111111110000000000000
0000000000000000000000000000000000000000000000000000000000000000000000
0000000000000000000000000000000111111000000011111111111111111111111111
1111111111111100111111111100000000000000000000000000000000000000000000
0000000000000000000000000000000000000000000000000000000000000000000001
1111100000000000000000000000001111111110000000000000001111111111100000
0000000000000000000000000000000000000000000000000000000000000000000000
0000000000000000000000000000000000000111111000000000000000000000000011
1111111000000000000000111111111111000000000000000000000000000000000000
0000000000000000000000000000000000000000000000000000000000000000000000
0000011111100000000000000000000000001111111110000000000000000111111111
1110000000000000000000000000000000000000000000000000000000000000000000
0000000000000000000000000000000000000000000111111000000000000000000000
0000111111111000000000000000001111111111110000000000000000000000000000
0000000000000000000000000000000000000000000000000000000000000000000000
0000000000011111100000000000000000000000001111111110000000000000000001
1111111111100000000000000000000000000000000000000000000000000000000000
0000000000000000000000000000000000000000000000000111111000000000000000
0000000000111111111000000000000000000011111111111100000000000000000000
0000000000000000000000000000000000000000000000000000000000000000000000
0000000000000000011111110000000000000000000000001111111110000000000000
0000000111111111111000000000000000000000000000000000000000000000000000
0000000000000000000000000000000000000000000000000000000111111110000000
0000000000000000111111111000000000000000000000111111111111000000000000
0000000000000000000000000000000000000000000000000000000000000000000000
0000000000000000000000011111110000000000000000000000001111111110000000
0000000000000001111111111110000000000000000000000000000000000000000000
0000000000000000000000000000000000000000000000000000000000000111111000
0000000000000000000000111111111000000000000000000000001111111111110000
0000000000000000000000000000000000000000000000000000000000000000000000
0000000000000000000000000000011111000000000000000000000000001111111110
0000000000000000000000011111111111100000000000000000000000000000000000
0000000000000000000000000000000000000000000000000000000000000000000111
1000000000000000000000000000000000000000000000000000000000000000000000
0000000000000000000000000000000000000000000000000000000000000000000000
0000000000000000000000000000000000011100000000000000000000000000000000
0000000000000000000000000000000000000000000000000000000000000000000000
0000000000000000000000000000000000000000000000000000000000000000000000
0001100000000000000000000000000000111111111000000000000000000000000011
1111111111000000000000000000000000000000000000000000000000000000000000
0000000000000000000000000000000000000000010000000000000000000000000000
0011111111100000000000000000000000001111111111110000000000000000000000
0000000000000000000000000000000000000000000000000000000000000000000000
0000000000000000000000000000000000000000111111111000000000000000000000
0000111111111111000000000000000000000000000000000000000000000000000000
0000000000000000000000000000000000000000000000000000000000000000000000
0000000000000000000000000000000000000000000000000000000000000000000000
0000000000000000000000000000000000000000000000000000000000000000000000
0000000000000000000000000000000000000000000000000000000000000000000000
0000000000000000000000000000000000000000000000000000000000000000000000
0000000000000000000000000000000000000000000000000000000000000000000000
0000000000000000000000000000000000000000000000000000000000000000000000
0000000000000000000000000000000000000000000000000000000000000000000000
0000000000000000000000000000000000000000000000000000000000000000000000
0000000000000000000000000000000000000000000000000000000000000000000000
0000000000000000000000000000000000000000000000000000000000000000000000
0000000000000000000000000000000000000000000000000000000000000000000000
0000000000000000000000000000000000000000000000000000000000000000000000
0000000000000000000000000000000000000000000000000000000000000000000000
0000000000000000000000000000000000000000000000000000000000000000000000
0000000000000000000000000000000000000000000000000000000000000000000000
0000000000000000000000000000000000000000000000000000000000000000000000
0000000000000000000000000000000000000000000000000000000000000000000000
0000000000000000000000000000000000000000000000000000000000000000000000
0000000000000000000000000000000000000000000000000000000000000000000000
0000000000000000000000000000000000000000000000000000000000000000000000
0000000000000000000000000000000000000000000000000000000000000000000000
0000000000000000000000000000000000000000000000000000000000000000000000
0000000000000000000000000000000000000000000000000000000000000000000000
0000000000000000000000000000000000000000000000000000000000000000000000
0000000000000000000000000000000000000000000000000000000000000000000000
0000000000000000000000000000000000000000000000000000000000000000000000
0000000000000000000000000000000000000000000000000000000000000000000000
0000000000000000000000000000000000000000000000000000000000000000000000
0000000000000000000000000000000000000000000000000000000000000000000000
0000000000000000000000000000000000000000000000000000000000000000000000
0000000000000000000000000000000000000000000000000000000000000000000000
0000000000000000000000000000000000000000000000000000000000000000000000
0000000000000000000000000000000000000000000000000000000000000000000000
0000000000000000000000000000000000000000000000000000000000000000000000
0000000000000000000000000000000000000000000000000000000000000000000000
0000000000000000000000000000000000000000000000000000000000000000000000
0000000000000000000000000000000000000000000000000000000000000000000000
0000000000000000000000000000000000000000000000000000000000000000000000
0000000000000000000000000000000000000000000000000000000000000000000000
0000000000000000000000000000000000000000000000000000000000000000000000
0011111111111110011000000000000110000011111100000000000001110000000000
1110000000000000000000000000000000000000000000000000000000000000000000
0000000000000000000000000000000000000000111111111111100011000000000011
0000011111111100000000000011100000000111000000000000000000000000000001
0000000000000000000000000000000000000000000000000000000000000000000000
0000000011000000000000001100000000001100001110000111000000000000011000
0000011000000000000000000000000000001100000000000000000000000000000000
0000000000000000000000000000000000000000000000110000000000000011100000
0001110001110000000110000000000001110000001110000000000000000000000000
0000110000000000000000000000000000000000000000000000000000000000000000
0000000000000011000000000000000110000000011000011000000001100000000000
0011000000110000011111100000000111110000111111100001111110000000000000
0000000000000000000000000000000000000000000000000000110000000000000001
1000000001100000000000000110000000000000011000011000001111111100000011
1111110011111110001111111100000000000000000000000000000000000000000000
0000000000000000000011000000000000000011000000110000000000000011100000
0000000001110011100001110000111000011100001100001100000111000011100000
0000000000000000000000000000000000000000000000000000000000110000000000
0000001100000011000000000000011100000000000000001100110000011000000110
0001100000011000110000011000000110000000000000000000000000000000000000
0000000000000000000000000011111111111110000011000000110000000001111100
0000000000000000011110000011000000001100110000000000001100001100000000
1100000000000000000000000000000000000000000000000000000000000000111111
1111111000000110000110000000000111111000000000000000000111100000110000
0000110011000000000000110000110000000011000000000000000000000000000000
0000000000000000000000000000000011000000000000000001100001100000000000
0001110001111111000000001100000011000000001100110000000000001100001100
0000001100000000000000000000000000000000000000000000000000000000000000
1100000000000000000011001100000000000000000110011111110000000011000000
1100000000110011000000000000110000110000000011000000000000000000000000
0000000000000000000000000000000000000011000000000000000000110011000000
0000000000011000000000000000001100000011000000001100110000000000001100
0011000000001100000000000000000000000000000000000000000000000000000000
0000001100000000000000000011001100000001100000000110000000000000000011
0000001100000000110011000000000000110000110000000011000000000000000000
0000000000000000000000000000000000000000000011000000000000000000011110
0000000111000000011000000000000000001100000001100000011000011000000110
0011000001100000011000000000000000000000000000000000000000000000000000
0000000000001100000000000000000001111000000000111000011100000000000000
0000110000000111000011100001110000111000110000011100001110000000000000
0000000000000000000000000000000000000000000000000011111111111111000000
0011000000000001111111110000000000000000001100000000111111110000001111
1111000011111000111111110000000000000000000000000000000000000000000000
0000000000000000001111111111111100000000110000000000001111110000000000
0000000000110000000001111110000000011111000000011110000111111000000000
0000000000000000000000000000000000000000000000000000000000000000000000
0000000000000000000000000000000000000000000000000000000000000000000000
0000000000000000000000000000000000000000000000000000000000000000000000
0000000000000000000000000000000000000000000000000000000000000000000000
0000000000000000000000000000000000000000000000000000000000000000000000
0000000000000000000000000000000000000000000000000000000000000000000000
0000000000000000000000000000000000000000000000000000000000000000000000
0000000000000000000000000000000000000000000000000000000000000000000000
0000000000000000000000000000000000000000000000000000000000000000000000
0000000000000000000000000000000000000000000000000000000000000000000000
0000000000000000000000000000000000000000000000000000000000000000000000
0000000000000000000000000000000000000000000000000000000000000000000000
0000000000000000000000000000000000000000000000000000000000000000000000
0000000000000000000000000000000000000000000000000000000000000000000000
0000000000000000000000000000000000000000000000000000000000000000000000
0000000000000000000000000000000000000000000000000000000000000000000000
0000000000000000000000000000000000000000000000000000000000000000000000
0000000000000000000000000000000000000000000000000000000000000000000000
0000000000000000000000000000000000000000000000000000000000000000000000
0000000000000000000000000000000000000000000000000000000000000000000000
0000000000000000000000000000000000000000000000000000000000000000000000
0000000000000000000000000000000000000000000000000000000000000000000000
0000000000000000000000000000000000000000000000000000000000000000000000
0000000000000000000000000000000000000000000000000000000000000000000000
0000000000000000000000000000000000000000000000000000000000000000000000
0000000000000000000000000000000000000000000000000000000000000000000000
0000000000000000000000000000000000000000000000000000000000000000000000
0000000000000000000000000000000000000000000000000000000000000000000000
0000000000000000000000000000000000000000000000000000000000000000000000
0000000000000000000000000000000000000000000000000000000000000000000000
0000000000000000000000000000000000000000000000000000000000000000000000
0000000000000000000000000000000000000000000000000000000000000000000000
0000000000000000000000000000000000000000000000000000000000000000000000
0000000000000000000000000000000000000000000000000000000000000000000000
0000000000000000000000000000000000000000000000000000000000000000000000
0000000000000000000000000000000000000000000000000000000000000000000000
0001000000000000000000000000000000010000000000000000000000000000000000
0111000000010000000000000000000000000000000000010000000000000000000000
0100000000000000000000000000000000000000010000000000000000000000000000
0001000000000000000000000000000000000010001000000100000000000000000000
0000000000000001000000000000000000000001000000000000000000000000000000
0000000001011000011100001110000111000011010000001110001011000000011100
1000100000100011010001110010001000001110001011000011010000010110011000
0111001110011100000001110011100001110000000000011001001000100100010010
0010010011000001000100110010000010001010001000001001001100100010100010
0001000100110010010011000001100110010010001001001000100000010001000100
1000100000000001000100000010010000001000100100010000010001001000100000
1000100101000011000100010010001001010000000001001000100100010000010001
0001001000100100000010000001000100010010000000000000010001000111100011
1000111110010001000001000100100010000011111001010000001001000100111110
0101000000111100100010010001000001000100010011111001000111100110010001
0001000111000000000001000100100010000001001000000100010000010001001000
1000001000000101000000100100010010000001010000010001001000100100010000
0100010001001000000100100010000001000100010000001000000000010001001000
1001000100100010010011000001000100100010000010001001110010001001001100
1000100111000001000100100010010011000001000100010010001001001000100000
0100010001001000100000000001011000011011001110000111000011010000001110
0010001000000111000010000111000011010001110000100000001101101000100011
0100000100010001000111000010011011000001000011100001110000000000000000
0000000000000000000000000000000000000000000000000000000000000000000000
0000000000000000000000000000000000000000000000000000000000000000000000
0000000000000000000000000000000000000000000000000000000000000000000000
0000000000000000000000000000000000000000000000000000000000000000000000
0000000000000000000000000000000000000000000000000000000000000000000000
0000000000000000000000000000000000000000000000000000000000000000000000
0000000000000000000000000000000000000000000000000000000000000000000000
0000000000000000000000000000000000